<?xml version="1.0" encoding="utf-8"?>
<!-- Generator: Adobe Illustrator 25.0.1, SVG Export Plug-In . SVG Version: 6.00 Build 0)  -->
<svg version="1.1" id="图层_1" xmlns="http://www.w3.org/2000/svg" xmlns:xlink="http://www.w3.org/1999/xlink" x="0px" y="0px"
	 viewBox="0 0 122 122" style="enable-background:new 0 0 122 122;" xml:space="preserve">
<style type="text/css">
	.st0{fill:#FF9500;}
</style>
<g>
	<g>
		<path class="st0" d="M61.1,13c1.1,0,2.1,0.3,3,0.8L101,35.1c1.9,1.1,3,3.1,3,5.2v41.4c0,2.1-1.1,4.1-3,5.2l-36.9,21.3
			c-0.9,0.5-1.9,0.8-3,0.8s-2.1-0.3-3-0.8l-37-21.3c-1.9-1.1-3-3.1-3-5.2V40.3c0-2.1,1.1-4.1,3-5.2L58,13.8C59,13.3,60,13,61.1,13
			 M61.1,1c-3.1,0-6.2,0.8-9,2.4l-37,21.3c-5.6,3.2-9,9.2-9,15.6v41.4c0,6.4,3.4,12.4,9,15.6L52,118.6c2.8,1.6,5.9,2.4,9,2.4
			s6.2-0.8,9-2.4l36.9-21.3c5.6-3.2,9-9.2,9-15.6V40.3c0-6.4-3.4-12.4-9-15.6L70.1,3.4C67.3,1.8,64.2,1,61.1,1L61.1,1z"/>
	</g>
</g>
</svg>
